<?xml version="1.0" encoding="UTF-8" standalone="no"?>
<svg width="520px" height="134px" viewBox="0 0 520 134" version="1.1" xmlns="http://www.w3.org/2000/svg" xmlns:xlink="http://www.w3.org/1999/xlink">
    <!-- Generator: Sketch 3.6.1 (26313) - http://www.bohemiancoding.com/sketch -->
    <title>Logo</title>
    <desc>Created with Sketch.</desc>
    <defs>
        <linearGradient x1="50%" y1="0%" x2="50%" y2="100%" id="linearGradient-1">
            <stop stop-color="#4AD8AC" offset="0%"></stop>
            <stop stop-color="#4076C4" offset="100%"></stop>
        </linearGradient>
    </defs>
    <g id="Page-1" stroke="none" stroke-width="1" fill="none" fill-rule="evenodd">
        <g id="Logo">
            <path d="M215.93,103.66 C216.59,103.66 217.03,103.22 217.03,102.56 L217.03,93.76 C217.03,93.1 216.59,92.66 215.93,92.66 L213.51,92.66 C210.32,92.66 208.89,91.45 208.89,87.82 L208.89,29.3 C208.89,28.64 208.45,28.2 207.79,28.2 L197.67,28.2 C197.01,28.2 196.57,28.64 196.57,29.3 L196.57,88.48 C196.57,98.71 200.75,103.66 211.09,103.66 L215.93,103.66 Z M240.02,39.97 C240.68,39.97 241.12,39.53 241.12,38.87 L241.12,29.3 C241.12,28.64 240.68,28.2 240.02,28.2 L229.9,28.2 C229.24,28.2 228.8,28.64 228.8,29.3 L228.8,38.87 C228.8,39.53 229.24,39.97 229.9,39.97 L240.02,39.97 Z M240.02,103 C240.68,103 241.12,102.56 241.12,101.9 L241.12,51.08 C241.12,50.42 240.68,49.98 240.02,49.98 L229.9,49.98 C229.24,49.98 228.8,50.42 228.8,51.08 L228.8,101.9 C228.8,102.56 229.24,103 229.9,103 L240.02,103 Z M300.85,103 C301.51,103 301.95,102.56 301.95,101.9 L301.95,68.46 C301.95,57.13 294.91,48.77 283.58,48.77 C276.54,48.77 271.92,51.63 269.61,54.93 L269.5,54.93 L269.5,51.08 C269.5,50.42 269.06,49.98 268.4,49.98 L258.28,49.98 C257.62,49.98 257.18,50.42 257.18,51.08 L257.18,101.9 C257.18,102.56 257.62,103 258.28,103 L268.4,103 C269.06,103 269.5,102.56 269.5,101.9 L269.5,71.32 C269.5,64.5 273.24,59.77 279.62,59.77 C286.22,59.77 289.63,64.5 289.63,71.32 L289.63,101.9 C289.63,102.56 290.07,103 290.73,103 L300.85,103 Z M363.66,103 C364.32,103 364.54,102.34 364.21,101.9 L344.85,70.44 L361.68,51.08 C362.12,50.64 361.9,49.98 361.24,49.98 L350.02,49.98 C349.14,49.98 348.59,50.31 347.93,51.08 L329.78,72.42 L329.78,29.3 C329.78,28.64 329.34,28.2 328.68,28.2 L318.56,28.2 C317.9,28.2 317.46,28.64 317.46,29.3 L317.46,101.9 C317.46,102.56 317.9,103 318.56,103 L328.68,103 C329.34,103 329.78,102.56 329.78,101.9 L329.78,87.93 L336.93,79.68 L350.35,101.9 C350.79,102.67 351.34,103 352.11,103 L363.66,103 Z M394.35,104.21 C404.14,104.21 411.62,100.47 416.13,95.19 C416.57,94.64 416.57,94.09 416.02,93.65 L409.53,87.93 C408.98,87.49 408.43,87.6 407.88,88.15 C405.24,91.01 401.39,93.21 395.45,93.21 C389.51,93.21 385.33,90.35 383.57,85.18 C383.13,83.97 382.8,82.65 382.8,81.11 C382.8,80.67 383.02,80.45 383.46,80.45 L416.13,80.45 C416.9,80.45 417.34,80.01 417.34,79.35 C417.34,70.77 416.79,67.14 415.58,63.4 C412.61,54.38 404.69,48.77 393.8,48.77 C383.24,48.77 375.1,54.16 372.13,63.4 C371.03,66.81 370.37,70.99 370.37,76.49 C370.37,81.99 371.14,86.06 372.24,89.47 C375.21,98.71 383.13,104.21 394.35,104.21 L394.35,104.21 Z M404.91,70.55 C404.91,70.99 404.69,71.21 404.25,71.21 L383.46,71.21 C383.02,71.21 382.8,70.99 382.8,70.55 C382.8,68.68 383.02,67.36 383.46,66.04 C384.89,61.75 388.85,59.22 393.91,59.22 C398.86,59.22 402.82,61.75 404.25,66.04 C404.69,67.36 404.91,68.68 404.91,70.55 L404.91,70.55 Z M441.76,103 C442.42,103 442.86,102.56 442.86,101.9 L442.86,73.19 C442.86,64.72 445.94,59.77 452.87,59.77 C455.73,59.77 458.26,60.76 460.68,62.3 C461.23,62.74 461.78,62.63 462.22,62.08 L468.05,54.71 C468.49,54.16 468.38,53.72 467.83,53.17 C465.08,50.42 460.9,48.77 456.72,48.77 C450.01,48.77 445.5,51.52 442.97,55.59 L442.86,55.59 L442.86,51.08 C442.86,50.42 442.42,49.98 441.76,49.98 L431.64,49.98 C430.98,49.98 430.54,50.42 430.54,51.08 L430.54,101.9 C430.54,102.56 430.98,103 431.64,103 L441.76,103 Z M518.87,103 C519.53,103 519.97,102.56 519.97,101.9 L519.97,29.3 C519.97,28.64 519.53,28.2 518.87,28.2 L508.75,28.2 C508.09,28.2 507.65,28.64 507.65,29.3 L507.65,55.04 L507.54,55.04 C505.01,51.41 500.61,48.77 493.46,48.77 C484.44,48.77 477.84,53.06 475.09,61.53 C473.77,65.6 473.22,69.34 473.22,76.49 C473.22,83.64 473.77,87.38 475.09,91.45 C477.84,99.92 484.44,104.21 493.46,104.21 C500.61,104.21 505.01,101.57 507.54,97.94 L507.65,97.94 L507.65,101.9 C507.65,102.56 508.09,103 508.75,103 L518.87,103 Z M496.65,93.21 C491.7,93.21 488.29,90.79 486.86,86.39 C486.09,83.97 485.76,81.33 485.76,76.49 C485.76,71.65 486.09,69.01 486.86,66.59 C488.29,62.19 491.7,59.77 496.65,59.77 C501.71,59.77 505.12,62.19 506.55,66.59 C507.32,69.01 507.65,71.65 507.65,76.49 C507.65,81.33 507.32,83.97 506.55,86.39 C505.12,90.79 501.71,93.21 496.65,93.21 L496.65,93.21 Z" id="linkerd" fill="#FFFFFF"></path>
            <g id="Logo-Symbol-144px">
                <g id="reverse-2" transform="translate(0.000000, 25.000000)">
                    <path d="M133.9974,54.6814 L143.9974,60.4544 L143.9974,6.2294 L133.9974,0.4544 L133.9974,54.6814 Z" id="Fill-1" fill="#40A0B4"></path>
                    <path d="M0,6.2299 L0,60.4579 L10,54.6819 L10,0.4559 L0,6.2299 Z" id="Fill-2" fill="#40A0B4"></path>
                    <path d="M44.0055,103.2265 L54.0055,108.9995 L77.8155,95.2525 L67.8155,89.4795 L44.0055,103.2265 Z" id="Fill-3" fill="#40A0B4"></path>
                    <path d="M58.0036,95.1446 L68.0036,100.9186 L77.8156,95.2526 L67.8156,89.4796 L58.0036,95.1446 Z" id="shadow" fill="#338090"></path>
                </g>
                <g id="reverse-1" transform="translate(49.000000, 75.000000)" fill="#45C1A8">
                    <path d="M45.9973,36.481 L45.9973,24.934 L2.9403,0.074 L0.0003,1.771 L0.0053,1.774 L0.0053,9.927 L45.9973,36.481 Z" id="Fill-5"></path>
                    <path d="M0.005,35.3309 L41,58.9999 L51.002,53.2269 L0.005,23.7829 L0.005,35.3309 Z" id="Fill-6"></path>
                </g>
                <g id="top-2" fill="#7CE1C0">
                    <path d="M109.5255,39.5855 L119.5245,45.3585 L143.9975,31.2295 L133.9955,25.4575 L109.5255,39.5855 Z" id="Fill-7"></path>
                    <path d="M77.0568,69.8788 L67.0568,64.1058 L44.0008,77.4178 L54.0008,83.1908 L77.0568,69.8788 Z" id="Fill-8"></path>
                    <path d="M122.0022,18.5302 L112.0002,12.7572 L87.5302,26.8862 L97.5302,32.6602 L122.0022,18.5302 Z" id="Fill-9"></path>
                    <path d="M55.0618,57.1796 L45.0618,51.4066 L22.0058,64.7186 L32.0058,70.4916 L55.0618,57.1796 Z" id="Fill-10"></path>
                    <path d="M65.5353,14.1875 L75.5353,19.9605 L100.0073,5.8315 L90.0053,0.0585 L65.5353,14.1875 Z" id="Fill-11"></path>
                    <path d="M0.0108,52.019 L10.0108,57.792 L33.0668,44.481 L23.0668,38.707 L0.0108,52.019 Z" id="Fill-12"></path>
                </g>
                <g id="gradient" transform="translate(0.000000, 52.000000)" fill="url(#linearGradient-1)">
                    <path d="M133.9974,5.788 L133.9974,56.597 L143.9974,50.823 L143.9974,0.015 L133.9974,5.788 Z" id="Fill-13"></path>
                    <path d="M121.997,63.5246 L121.997,12.7166 L111.997,18.4896 L111.997,69.2986 L121.997,63.5246 Z" id="Fill-14"></path>
                    <path d="M89.9964,31.1914 L89.9964,82.0004 L99.9974,76.2264 L99.9974,25.4174 L89.9964,31.1914 Z" id="Fill-15"></path>
                    <path d="M44.0055,76.2265 L54.0055,81.9995 L54.0055,31.1925 L44.0055,25.4175 L44.0055,76.2265 Z" id="Fill-16"></path>
                    <path d="M32.0055,18.4902 L32.0055,69.2982 L22.0055,63.5252 L22.0055,12.7162 L32.0055,18.4902 Z" id="Fill-17"></path>
                    <path d="M0.0054,50.8231 L10.0054,56.5961 L10.0054,5.7881 L0.0054,0.0141 L0.0054,50.8231 Z" id="Fill-18"></path>
                </g>
                <g id="shadow" transform="translate(14.000000, 38.000000)" fill="#45C1A8">
                    <path d="M43.9982,31.3356 L53.9982,37.1086 L63.0572,31.8786 L53.0572,26.1056 L43.9982,31.3356 Z" id="Fill-19"></path>
                    <path d="M0.0084,5.9372 L10.0084,11.7102 L19.0664,6.4802 L9.0674,0.7072 L0.0084,5.9372 Z" id="Fill-20"></path>
                    <path d="M22.0034,18.6364 L32.0034,24.4094 L41.0614,19.1794 L31.0624,13.4064 L22.0034,18.6364 Z" id="Fill-21"></path>
                </g>
                <g id="top-1" fill="#A2EACF">
                    <path d="M54.0009,0.053 L43.9999,5.826 L133.9959,57.787 L143.9969,52.014 L54.0009,0.053 Z" id="Fill-22"></path>
                    <path d="M32.0003,12.7551 L22.0003,18.5281 L111.9953,70.4891 L121.9973,64.7161 L32.0003,12.7551 Z" id="Fill-23"></path>
                    <path d="M0,31.2299 L89.995,83.1909 L99.997,77.4179 L10,25.4569 L0,31.2299 Z" id="Fill-24"></path>
                </g>
            </g>
        </g>
    </g>
</svg>